HIERARCHY
ROOT Hips
{
    OFFSET 0.000000 0.000000 0.000000
    CHANNELS 6 Xposition Yposition Zposition Zrotation Xrotation Yrotation
    JOINT Spine
    {
        OFFSET -0.000000 7.236184 0.000000
        CHANNELS 3 Zrotation Xrotation Yrotation
        JOINT Spine1
        {
            OFFSET -0.000000 20.420147 0.000000
            CHANNELS 3 Zrotation Xrotation Yrotation
            JOINT Neck
            {
                OFFSET -0.000000 20.336288 1.848754
                CHANNELS 3 Zrotation Xrotation Yrotation
                JOINT Head
                {
                    OFFSET -0.000000 12.354461 -1.764923
                    CHANNELS 3 Zrotation Xrotation Yrotation
                    End Site
                    {
                        OFFSET -0.000000 22.061537 0.000000
                    }
                }
            }
            JOINT LeftShoulder
            {
                OFFSET 3.573296 18.396038 -0.314103
                CHANNELS 3 Zrotation Xrotation Yrotation
                JOINT LeftArm
                {
                    OFFSET 10.880760 0.000000 0.000000
                    CHANNELS 3 Zrotation Xrotation Yrotation
                    JOINT LeftForeArm
                    {
                        OFFSET 27.185530 0.000000 0.000000
                        CHANNELS 3 Zrotation Xrotation Yrotation
                        JOINT LeftHand
                        {
                            OFFSET 27.825975 0.000000 0.000000
                            CHANNELS 3 Zrotation Xrotation Yrotation
                            End Site
                            {
                                OFFSET 13.236923 0.000000 0.000000
                            }
                        }
                    }
                }
            }
            JOINT RightShoulder
            {
                OFFSET -3.474926 18.396038 -0.314103
                CHANNELS 3 Zrotation Xrotation Yrotation
                JOINT RightArm
                {
                    OFFSET -10.880760 0.000000 0.000000
                    CHANNELS 3 Zrotation Xrotation Yrotation
                    JOINT RightForeArm
                    {
                        OFFSET -27.185530 0.000000 0.000000
                        CHANNELS 3 Zrotation Xrotation Yrotation
                        JOINT RightHand
                        {
                            OFFSET -27.825975 0.000000 0.000000
                            CHANNELS 3 Zrotation Xrotation Yrotation
                            End Site
                            {
                                OFFSET -13.236923 0.000000 0.000000
                            }
                        }
                    }
                }
            }
        }
    }
    JOINT LeftUpLeg
    {
        OFFSET 8.824615 0.000000 0.000000
        CHANNELS 3 Zrotation Xrotation Yrotation
        JOINT LeftLeg
        {
            OFFSET -0.000000 -35.111282 0.000000
            CHANNELS 3 Zrotation Xrotation Yrotation
            JOINT LeftFoot
            {
                OFFSET -0.000000 -42.324711 0.000000
                CHANNELS 3 Zrotation Xrotation Yrotation
                JOINT LeftToeBase
                {
                    OFFSET -0.000000 -5.735999 13.236923
                    CHANNELS 3 Zrotation Xrotation Yrotation
                    End Site
                    {
                        OFFSET -0.000000 0.000000 3.529846
                    }
                }
            }
        }
    }
    JOINT RightUpLeg
    {
        OFFSET -8.824615 0.000000 0.000000
        CHANNELS 3 Zrotation Xrotation Yrotation
        JOINT RightLeg
        {
            OFFSET -0.000000 -35.111282 0.000000
            CHANNELS 3 Zrotation Xrotation Yrotation
            JOINT RightFoot
            {
                OFFSET -0.000000 -42.324711 0.000000
                CHANNELS 3 Zrotation Xrotation Yrotation
                JOINT RightToeBase
                {
                    OFFSET -0.000000 -5.735999 13.236923
                    CHANNELS 3 Zrotation Xrotation Yrotation
                    End Site
                    {
                        OFFSET -0.000000 0.000000 3.529846
                    }
                }
            }
        }
    }
}
MOTION
Frames:    8
Frame Time:    0.008333
-6.872352    79.592484    105.804955    0.359691    -8.789232    -170.293777    -2.343408    -4.493650    0.551795    4.407906    2.944983    0.530500    1.787320    5.813949    -3.329906    8.047272    -17.047117    -1.327574    3.262219    13.483885    0.448752    -50.840584    22.626850    -18.286768    -0.653705    -6.110594    -8.816092    22.343109    -5.545892    3.128573    6.589051    18.098207    -9.152932    48.145824    38.769657    24.747610    -3.635513    -8.353830    24.893034    -12.030101    -7.249456    -2.962031    8.602374    -26.222498    4.941041    -5.415341    31.804808    3.743937    -13.622558    -11.988411    -18.820879    0.128051    -5.658964    -0.143474    -19.278158    -27.181046    -13.068523    18.689377    49.418278    -13.859089    5.359302    -2.119518    -14.335899    -0.219386    -5.780606    0.239279    
-6.835379    79.482346    105.892006    0.480601    -8.870569    -170.331680    -2.351926    -4.390683    0.545081    4.181773    3.006196    0.525528    1.760468    5.643225    -3.468831    8.221790    -17.318226    -1.403386    3.186304    13.535051    0.359849    -50.867283    22.864735    -18.890705    -0.674948    -6.121606    -8.725101    22.230232    -5.588185    2.990638    6.608770    18.070148    -9.130367    48.047302    38.903431    24.772112    -3.618145    -8.332381    24.869919    -11.958578    -7.234285    -2.962718    8.908568    -26.713791    5.340911    -5.479360    32.443901    3.926581    -13.547508    -12.090299    -18.861996    0.186707    -5.626558    -0.209181    -19.566536    -27.240805    -13.164253    18.504511    49.344524    -13.635284    5.267281    -2.305228    -14.637176    -0.181736    -5.906952    0.198255    
-6.787393    79.371468    105.977631    0.601672    -8.951548    -170.385620    -2.361893    -4.290406    0.539882    3.955745    3.071033    0.522353    1.739221    5.491138    -3.606195    8.391506    -17.595953    -1.477880    3.114325    13.583410    0.265518    -50.881973    23.156532    -19.532448    -0.703684    -6.113971    -8.620683    22.101101    -5.613294    2.848041    6.626968    18.040972    -9.112207    47.948452    39.030933    24.803179    -3.604676    -8.316647    24.837082    -11.891508    -7.224004    -2.965330    9.232494    -27.193445    5.747050    -5.546222    33.070217    4.123496    -13.460952    -12.186687    -18.907358    0.249703    -5.583047    -0.279734    -19.879629    -27.281193    -13.284302    18.261105    49.252636    -13.380023    5.172481    -2.450171    -14.935490    -0.142536    -6.027725    0.155522    
-6.728178    79.258873    106.062508    0.722755    -9.034433    -170.457062    -2.373187    -4.193089    0.535536    3.726947    3.137465    0.520317    1.722833    5.356670    -3.741851    8.556956    -17.878706    -1.550857    3.046117    13.629415    0.164648    -50.881657    23.503466    -20.212587    -0.740326    -6.085185    -8.507374    21.962124    -5.617764    2.704747    6.643466    18.011263    -9.098039    47.850925    39.151123    24.840477    -3.594147    -8.305957    24.796257    -11.830109    -7.218040    -2.969689    9.575790    -27.665812    6.159988    -5.618824    33.687508    4.336702    -13.360591    -12.278664    -18.958466    0.317529    -5.529378    -0.355678    -20.218536    -27.304705    -13.427707    17.959583    49.137608    -13.094275    5.076376    -2.550365    -15.223275    -0.100962    -6.141237    0.110181    
-6.658240    79.145195    106.146049    0.842286    -9.119995    -170.546143    -2.385241    -4.100158    0.531108    3.495867    3.202469    0.518812    1.710550    5.240447    -3.873538    8.716589    -18.161131    -1.620772    2.981102    13.673645    0.057906    -50.862080    23.900736    -20.922371    -0.784476    -6.033776    -8.391751    21.821260    -5.598819    2.566152    6.658416    17.981495    -9.086596    47.758095    39.261055    24.881172    -3.585557    -8.299673    24.749874    -11.776656    -7.215928    -2.975248    9.935803    -28.128355    6.577145    -5.697316    34.291325    4.561457    -13.247758    -12.365952    -19.016558    0.389948    -5.467436    -0.436743    -20.578867    -27.313070    -13.589869    17.607304    48.995197    -12.783242    4.982205    -2.602537    -15.492359    -0.057843    -6.244544    0.063138    
-6.577586    79.030136    106.228348    0.959628    -9.209198    -170.653809    -2.397846    -4.011876    0.526127    3.261460    3.264051    0.517302    1.701133    5.142160    -4.000239    8.870970    -18.441135    -1.686477    2.918318    13.717394    -0.055712    -50.819668    24.344856    -21.658710    -0.835783    -5.958997    -8.279990    21.683594    -5.554973    2.435775    6.672484    17.952290    -9.076672    47.671001    39.360043    24.923668    -3.578424    -8.297919    24.700270    -11.732626    -7.217821    -2.981998    10.312943    -28.581924    7.001427    -5.781335    34.882767    4.792297    -13.125008    -12.448946    -19.082943    0.466809    -5.401006    -0.522757    -20.958559    -27.307894    -13.765576    17.211386    48.820248    -12.450025    4.892977    -2.607313    -15.740209    -0.014572    -6.335320    0.015913    
-6.485785    78.913078    106.309685    1.074353    -9.303315    -170.782166    -2.411284    -3.928818    0.520553    3.022249    3.321583    0.515685    1.694008    5.059942    -4.121281    9.019652    -18.717218    -1.747556    2.856284    13.762333    -0.177815    -50.750130    24.834217    -22.422384    -0.893457    -5.860855    -8.177756    21.551996    -5.485858    2.315144    6.686491    17.924006    -9.067303    47.589314    39.448345    24.967060    -3.572150    -8.301166    24.649401    -11.699661    -7.224164    -2.989502    10.709297    -29.028284    7.437984    -5.870639    35.464542    5.024968    -12.996519    -12.528018    -19.158978    0.548024    -5.332394    -0.613622    -21.356970    -27.290886    -13.949408    16.778252    48.607143    -12.095588    4.811549    -2.567627    -15.967590    0.027283    -6.412376    -0.029778    
-6.383665    78.794739    106.388329    1.183510    -9.396120    -170.932434    -2.425977    -3.847213    0.514846    2.779771    3.375411    0.514431    1.688206    4.993200    -4.234761    9.161781    -18.985441    -1.802542    2.794517    13.810254    -0.308247    -50.649235    25.360825    -23.206926    -0.956525    -5.741601    -8.091676    21.430162    -5.393267    2.206762    6.701221    17.897150    -9.057326    47.512737    39.526226    25.010408    -3.566635    -8.310174    24.599548    -11.679275    -7.235709    -2.997762    11.121727    -29.455746    7.885819    -5.964032    36.031456    5.252284    -12.868571    -12.603798    -19.243111    0.631406    -5.263480    -0.706887    -21.767324    -27.257029    -14.131007    16.319706    48.353012    -11.724057    4.741217    -2.489956    -16.173798    0.066160    -6.473811    -0.072226    
